# xmcd CD database file
#
# Track frame offsets:
#	150
#	14805
#	35564
#	58709
#	76973
#	100691
#	120409
#	144465
#	167037
#	184991
#	215746
#	236700
#	256116
#	276541
#	301629
#	317770
#	336735
#
# Disc length: 4755 seconds
#
# Revision: 0
# Processed by: cddbd v1.5.2PL0 Copyright (c) Steve Scherf et al.
# Submitted via: CDex 1.51
#
DISCID=fc129111
DTITLE=G. Niche-Chichi Peralta-Marc Anthony-Don Den-Max Torres - Salsamania Exitos
DYEAR=1900
DGENRE=Salsa
TTITLE0=Intro
TTITLE1=Mi Cuerpo - Dan Den
TTITLE2=Ahora Quien - Marc Anthony
TTITLE3=La Vida Es Un Carnaval - Celia Cruz
TTITLE4=Nunca Te Dire Adios - Max Torres
TTITLE5=Amor Desechable - Latin Brothers
TTITLE6=Casi Te Envidio - Andy Montañez
TTITLE7=Y Que Me Pasa - Nicky Taveras
TTITLE8=Desde El Fondo De Mi Corazon - Hildemaro
TTITLE9=El Gran Baron - Willie Colon
TTITLE10=Jamas - Eddie Santiago
TTITLE11=Lo Quiero A Morir - Zaida
TTITLE12=Procura - Chi Chi Peralta
TTITLE13=Entrega - G. Niche
TTITLE14=Mis Lagrimas - William Canon
TTITLE15=Reyes Del Amor - Banda Del Futuro
TTITLE16=De Punta A Punta - G. Niche
EXTD=
EXTT0=
EXTT1=
EXTT2=
EXTT3=
EXTT4=
EXTT5=
EXTT6=
EXTT7=
EXTT8=
EXTT9=
EXTT10=
EXTT11=
EXTT12=
EXTT13=
EXTT14=
EXTT15=
EXTT16=
PLAYORDER=
